<svg xmlns="http://www.w3.org/2000/svg" viewBox="0 0 48 12" role="img" aria-label="PayPal">
  <path fill="#003087" d="M17.9 1.2h-5.8c-.4 0-.8.3-.9.7L9.2 10.5c0 .3.2.5.5.5h2.8l.7-4.4.1-.6c.1-.4.5-.7.9-.7h1.8c3.7 0 5.8-1.8 6.4-5.3.3-1.5 0-2.7-.8-3.5-.9-.9-2.4-1.3-4.3-1.3zm.7 5.2c-.3 2.1-2 2.1-3.6 2.1h-.9l.6-3.9h.9c1.1 0 2.1 0 2.6.6.3.3.5.8.4 1.2z"/>
  <path fill="#009CDE" d="M32.5 6.4c-.3-1.5-1.7-1.5-3-1.5h-.8l-.3 1.8h-.8c-.2 0-.4.2-.4.4l-.3 1.9-.1.7c0 .2.2.4.4.4h1.5c.3 0 .6-.2.6-.5l.1-.4c.1-.3.3-.5.6-.5h.4c2.4 0 4.2-1 4.6-3.8.2-1.1 0-2-.6-2.6-.5-.5-1.3-.8-2.3-.8h-3.8c-.4 0-.8.3-.9.7l-1.6 9.8c0 .3.2.5.5.5h2.7l.7-4.4z"/>
</svg>
