<svg xmlns="http://www.w3.org/2000/svg" viewBox="0 0 100 26" role="img" aria-label="PayPal">
  <rect width="100" height="26" rx="4" fill="#fff"/>
  <path fill="#003087" d="M35.8 5.2H26.8c-.6 0-1.1.4-1.2 1l-3.4 18.6c0 .4.3.7.7.7h4.4l1.1-7.1.1-.8c.1-.6.6-1 1.2-1h2.5c5 0 7.9-2.4 8.6-7.2.3-2 .1-3.6-.9-4.7-1-1.1-2.8-1.5-5-1.5zm.9 7.1c-.4 2.8-2.7 2.8-4.8 2.8h-1.2l.8-5.2h1.2c1.5 0 2.8 0 3.5.8.4.4.6 1 .5 1.6z"/>
  <path fill="#009CDE" d="M65.2 12.3c-.4-2-2.3-2-4.1-2h-1.1l-.4 2.4h-1.1c-.3 0-.5.2-.5.5l-.4 2.6-.1 1c0 .2.2.4.5.4h2l.9-5.7c.1-.4.4-.7.8-.7h.5c3.2 0 5.6-1.3 6.1-5.1.3-1.5 0-2.7-.8-3.5-.7-.7-1.7-1.1-3.1-1.1h-5.1c-.6 0-1.1.4-1.2 1l-2.2 13.2c0 .4.3.7.7.7h3.6l.9-5.7z"/>
  <path fill="#012169" d="M78.4 5.2h-7.1c-.6 0-1.1.4-1.2 1l-2.9 18.3c0 .4.3.7.7.7h3.4c.5 0 1.1-.4 1.2-1l.8-4.8c.1-.6.6-1 1.2-1h2.3c4.7 0 7.4-1.9 8.1-7.4.3-1.9 0-3.4-1-4.4-.9-1-2.5-1.4-4.5-1.4zm.6 7.2c-.4 2.5-2.3 2.5-4.1 2.5h-1l.7-4.6h1c1.3 0 2.4 0 3 .7.3.3.5.8.4 1.4z"/>
</svg>
