<svg xmlns="http://www.w3.org/2000/svg" viewBox="0 0 101 32" role="img" aria-label="PayPal">
  <path fill="#003087" d="M35.834 8.668H26.32c-.632 0-1.172.467-1.269 1.092L20.88 29.453c-.07.434.27.812.71.812h5.026c.632 0 1.173-.467 1.27-1.092l.656-4.17.04-.254c.097-.625.638-1.092 1.27-1.092h2.66c5.439 0 8.58-2.63 9.394-7.868.368-2.21.013-3.948-.966-5.162-1.089-1.297-3.026-1.778-5.389-1.778zm.978 7.667c-.448 2.871-2.621 2.871-4.794 2.871h-1.21l.848-5.39h1.21c1.434 0 2.776 0 3.487.814.428.428.624 1.046.533 1.705z"/>
  <path fill="#009CDE" d="M63.074 16.085c-.448-2.21-2.557-2.21-4.526-2.21h-1.21l-.422 2.675h-1.132a.564.564 0 0 0-.557.478l-.403 2.559-.098.705a.564.564 0 0 0 .557.659h2.344l1.109-7.043c.097-.625.638-1.092 1.27-1.092h.626c4.062 0 7.11-1.728 7.872-6.556.39-1.938 0-3.411-1.053-4.404-.936-1.11-2.428-1.703-4.403-1.703h-5.439c-.632 0-1.172.467-1.269 1.092l-2.373 14.922c-.07.434.27.812.71.812h4.679l1.109-7.043z"/>
</svg>
