<svg xmlns="http://www.w3.org/2000/svg" viewBox="0 0 48 16" role="img" aria-label="Visa">
  <path fill="#1A1F71" d="M19.5 1.5h-3.2l-2 13h3.2l2-13zm8.7 8.4c0-3.2-4.4-3.4-4.4-4.8 0-.4.4-1 1.4-1.1.5 0 1.8.1 3.3.7l.6-2.7c-.8-.3-1.9-.6-3.3-.6-3.5 0-5.9 1.8-5.9 4.5 0 2 1.8 3.1 3.1 3.8 1.4.7 1.9 1.2 1.9 1.8 0 1-1.1 1.4-2.2 1.4-1.8 0-2.9-.5-3.7-.9l-.6 2.8c.8.4 2.2.7 3.7.7 3.7 0 6.1-1.8 6.1-4.6zm9.8 4.6h2.9l-2.5-13h-2.7c-.6 0-1.1.4-1.3.9l-4.6 12.1h3.3l.6-1.7h4.1l.4 1.7zm-3.6-4.2 1.7-4.7.9 4.7h-2.6zM9.2 1.5 6.1 11.1 5.7 8.8 4.2 1.5H1L0 14.5h3.1l.5-3.4.5 3.4h3.3l3.1-13H9.2z"/>
</svg>
