<svg xmlns="http://www.w3.org/2000/svg" viewBox="0 0 100 32" role="img" aria-label="Visa">
  <rect width="100" height="32" rx="4" fill="#fff"/>
  <path fill="#1A1F71" d="M42.3 21.5h-4.8l3-18.3h4.8l-3 18.3zm21.3-17.8c-.9-.4-2.4-.8-4.3-.8-4.7 0-8.1 2.5-8.1 6.1 0 2.7 2.4 4.2 4.2 5.1 1.9.9 2.5 1.5 2.5 2.4 0 1.3-1.5 1.9-2.9 1.9-1.9 0-3-.6-3.8-1l-.7 3.3c1 .5 2.8.9 4.7.9 5.1 0 8.4-2.5 8.4-6.4.1-2.1-1.3-3.7-4.1-5.1-1.7-.9-2.8-1.5-2.8-2.3 0-.8.9-1.6 2.8-1.6 1.6 0 2.8.3 3.7.7l.7-3.4zm12.2 11.8h4.2l-3.6-18.3h-3.9c-.7 0-1.4.5-1.7 1.2l-6.7 17.1h4.8l.9-2.6h5.9l.5 2.6zm-5.3-6.2 2.5-6.8 1.4 6.8h-3.9zM25.1 3.7l-4.5 18.3h-4.6L11.8 9.8l-2 12.2H4.5L1.2 21.5h3.5l.7-4.5.7 4.5h4.4l4.2-18.3h3.6z"/>
</svg>
